PathFileType	4	(X/Y/Z)	traj.trc
DataRate	CameraRate	NumFrames	NumMarkers	Units	OrigDataRate	OrigDataStartFrame	OrigNumFrames
30.00	30.00	50	1	mm	30.00	1	50
Frame#	Time	wrist		
		X1	Y1	Z1

0	0.0	300.0	700.0	200.0
1	0.02040816326530612	300.0	700.0	200.0
2	0.04081632653061224	300.03597001873953	700.0	200.0
3	0.061224489795918366	300.20988755726347	700.0	200.0
4	0.08163265306122448	300.6451497631922	700.0	200.0
5	0.1020408163265306	301.4482928378621	700.0	200.0
6	0.12244897959183673	302.7097414117157	700.0	200.0
7	0.14285714285714285	304.5045579196923	700.0	200.0
8	0.16326530612244897	306.8931919766181	700.0	200.0
9	0.18367346938775508	309.9222297525968	700.0	200.0
10	0.2040816326530612	313.6251433484	700.0	200.0
11	0.22448979591836732	318.0230401708576	700.0	200.0
12	0.24489795918367346	323.1254123082479	700.0	200.0
13	0.26530612244897955	328.9308859056886	700.0	200.0
14	0.2857142857142857	335.42797054052687	700.0	200.0
15	0.3061224489795918	342.59580859772956	700.0	200.0
16	0.32653061224489793	350.404924645274	700.0	200.0
17	0.3469387755102041	358.81797480953804	700.0	200.0
18	0.36734693877551017	367.790496150691	700.0	200.0
19	0.3877551020408163	377.2716560380835	700.0	200.0
20	0.4081632653061224	387.20500152563807	700.0	200.0
21	0.42857142857142855	397.5292087272396	700.0	200.0
22	0.44897959183673464	408.1788321921259	700.0	200.0
23	0.4693877551020408	419.0850542802778	700.0	200.0
24	0.4897959183673469	430.17643453780966	700.0	200.0
25	0.5102040816326531	441.37965907235997	700.0	200.0
26	0.5306122448979591	452.62028992848144	700.0	200.0
27	0.5510204081632653	463.8235144630317	700.0	200.0
28	0.5714285714285714	474.9148947205636	700.0	200.0
29	0.5918367346938775	485.82111680871543	700.0	200.0
30	0.6122448979591836	496.47074027360173	700.0	200.0
31	0.6326530612244897	506.79494747520334	700.0	200.0
32	0.6530612244897959	516.7282929627579	700.0	200.0
33	0.673469387755102	526.2094528501505	700.0	200.0
34	0.6938775510204082	535.1819741913033	700.0	200.0
35	0.7142857142857142	543.5950243555674	700.0	200.0
36	0.7346938775510203	551.4041404031118	700.0	200.0
37	0.7551020408163265	558.5719784603144	700.0	200.0
38	0.7755102040816326	565.0690630951527	700.0	200.0
39	0.7959183673469387	570.8745366925934	700.0	200.0
40	0.8163265306122448	575.9769088299838	700.0	200.0
41	0.836734693877551	580.3748056524414	700.0	200.0
42	0.8571428571428571	584.0777192482444	700.0	200.0
43	0.8775510204081632	587.1067570242233	700.0	200.0
44	0.8979591836734693	589.4953910811491	700.0	200.0
45	0.9183673469387754	591.2902075891257	700.0	200.0
46	0.9387755102040816	592.5516561629794	700.0	200.0
47	0.9591836734693877	593.3547992376491	700.0	200.0
48	0.9795918367346939	593.7900614435778	700.0	200.0
49	1.0	593.9639789821016	700.0	200.0
